<svg width="14" height="14" viewBox="0 0 14 14" fill="none" xmlns="http://www.w3.org/2000/svg">
<circle cx="7" cy="7" r="7" fill="white"/>
<g clip-path="url(#clip0_680_71)">
<path d="M8 5.01304C8 4.44741 7.57947 4 7.00071 4C6.42195 4 6.00143 4.44741 6.00143 5.01304C6.00143 5.57867 6.42195 6.02608 7.00071 6.02608C7.57947 6.02608 8 5.57717 8 5.01304Z" fill="#DEABCA"/>
<path d="M7.80047 9.44675L7.58236 6.79519C7.56953 6.64555 7.44979 6.53033 7.30724 6.53033H6.69427C6.55029 6.53033 6.43197 6.64555 6.41914 6.79519L6.20104 9.44675L6.15257 10.6977C6.14687 10.8623 6.27231 11 6.42912 11H7.57238C7.72919 11 7.85464 10.8623 7.84893 10.6977L7.80047 9.44675Z" fill="#DEABCA"/>
</g>
<defs>
<clipPath id="clip0_680_71">
<rect width="2" height="7" fill="white" transform="matrix(-1 0 0 1 8 4)"/>
</clipPath>
</defs>
</svg>
