<svg xmlns="http://www.w3.org/2000/svg" xmlns:xlink="http://www.w3.org/1999/xlink" width="360" zoomAndPan="magnify" viewBox="0 0 270 173.999997" height="232" preserveAspectRatio="xMidYMid meet" version="1.0"><defs><g/><clipPath id="a44bdaa25c"><path d="M 180.238281 54.414062 L 225.21875 54.414062 L 225.21875 123.984375 L 180.238281 123.984375 Z M 180.238281 54.414062 " clip-rule="nonzero"/></clipPath></defs><rect x="-27" width="324" fill="#ffffff" y="-17.4" height="208.799996" fill-opacity="1"/><rect x="-27" width="324" fill="#419baa" y="-17.4" height="208.799996" fill-opacity="1"/><g clip-path="url(#a44bdaa25c)"><path fill="#ffffff" d="M 223.964844 86.550781 L 185.867188 55.222656 C 183 52.863281 178.953125 56.109375 180.632812 59.421875 L 194.96875 87.644531 C 195.464844 88.621094 195.464844 89.773438 194.96875 90.75 L 180.632812 118.976562 C 178.949219 122.289062 182.996094 125.535156 185.867188 123.175781 L 223.964844 91.847656 C 225.632812 90.476562 225.632812 87.921875 223.964844 86.550781 " fill-opacity="1" fill-rule="nonzero"/></g><g fill="#ffffff" fill-opacity="1"><g transform="translate(18.812559, 77.363951)"><g><path d="M 24.21875 0 L 13.953125 0 L 0.828125 -42.640625 L 9.640625 -42.640625 L 19.265625 -10.84375 L 28.84375 -42.640625 L 37.5 -42.640625 Z M 24.21875 0 "/></g></g></g><g fill="#ffffff" fill-opacity="1"><g transform="translate(57.107227, 77.363951)"><g><path d="M 11.03125 -14.078125 C 11.175781 -11.203125 11.875 -9.140625 13.125 -7.890625 C 14.375 -6.640625 16.347656 -6.015625 19.046875 -6.015625 C 20.609375 -6.015625 21.976562 -6.207031 23.15625 -6.59375 C 24.332031 -6.988281 25.363281 -7.738281 26.25 -8.84375 L 32.171875 -4.625 C 30.878906 -2.75 29.195312 -1.347656 27.125 -0.421875 C 25.0625 0.492188 22.242188 0.953125 18.671875 0.953125 C 13.347656 0.953125 9.375 -0.441406 6.75 -3.234375 C 4.132812 -6.023438 2.828125 -10.25 2.828125 -15.90625 C 2.828125 -27.46875 8.003906 -33.25 18.359375 -33.25 C 22.960938 -33.25 26.472656 -31.945312 28.890625 -29.34375 C 31.304688 -26.75 32.515625 -22.96875 32.515625 -18 L 32.515625 -14.078125 Z M 24.625 -19.5625 C 24.625 -24.476562 22.476562 -26.9375 18.1875 -26.9375 C 16.757812 -26.9375 15.59375 -26.691406 14.6875 -26.203125 C 13.789062 -25.722656 13.066406 -25.003906 12.515625 -24.046875 C 11.972656 -23.097656 11.550781 -21.601562 11.25 -19.5625 Z M 24.625 -19.5625 "/></g></g></g><g fill="#ffffff" fill-opacity="1"><g transform="translate(92.321068, 77.363951)"><g><path d="M 23.96875 -24.5625 C 23.144531 -24.96875 22.054688 -25.171875 20.703125 -25.171875 C 19.222656 -25.171875 17.820312 -24.816406 16.5 -24.109375 C 15.175781 -23.398438 13.816406 -22.367188 12.421875 -21.015625 L 12.421875 0 L 4.46875 0 L 4.46875 -32.328125 L 12.421875 -32.328125 L 12.421875 -27.703125 C 13.773438 -29.179688 15.234375 -30.398438 16.796875 -31.359375 C 18.359375 -32.328125 20.101562 -32.8125 22.03125 -32.8125 C 23.675781 -32.8125 24.847656 -32.597656 25.546875 -32.171875 Z M 23.96875 -24.5625 "/></g></g></g><g fill="#ffffff" fill-opacity="1"><g transform="translate(9.492501, 146.006922)"><g><path d="M 38.359375 0 L 38.359375 -28.65625 L 28.140625 -10.84375 L 23.109375 -10.84375 L 13 -28.65625 L 13 0 L 4.625 0 L 4.625 -42.640625 L 14.640625 -42.640625 L 25.765625 -22.40625 L 36.984375 -42.640625 L 46.78125 -42.640625 L 46.78125 0 Z M 38.359375 0 "/></g></g></g><g fill="#ffffff" fill-opacity="1"><g transform="translate(60.84987, 146.006922)"><g><path d="M 23.546875 0 L 23.546875 -3.359375 C 20.398438 -0.484375 17.03125 0.953125 13.4375 0.953125 C 9.863281 0.953125 7.160156 0.015625 5.328125 -1.859375 C 3.503906 -3.742188 2.59375 -6.15625 2.59375 -9.09375 C 2.59375 -11.394531 3.054688 -13.296875 3.984375 -14.796875 C 4.921875 -16.296875 6.304688 -17.46875 8.140625 -18.3125 C 9.984375 -19.164062 12.628906 -19.769531 16.078125 -20.125 L 22.890625 -20.765625 L 22.890625 -22.21875 C 22.890625 -24.019531 22.34375 -25.253906 21.25 -25.921875 C 20.164062 -26.597656 18.578125 -26.9375 16.484375 -26.9375 C 14.753906 -26.9375 13.269531 -26.644531 12.03125 -26.0625 C 10.789062 -25.488281 9.875 -24.671875 9.28125 -23.609375 L 3.078125 -27.578125 C 4.171875 -29.410156 5.875 -30.8125 8.1875 -31.78125 C 10.507812 -32.757812 13.316406 -33.25 16.609375 -33.25 C 21.640625 -33.25 25.269531 -32.367188 27.5 -30.609375 C 29.726562 -28.859375 30.84375 -25.976562 30.84375 -21.96875 L 30.84375 0 Z M 22.890625 -15 L 18.859375 -14.640625 C 16.003906 -14.390625 13.941406 -13.84375 12.671875 -13 C 11.410156 -12.15625 10.78125 -10.894531 10.78125 -9.21875 C 10.78125 -7.738281 11.191406 -6.722656 12.015625 -6.171875 C 12.835938 -5.628906 13.925781 -5.359375 15.28125 -5.359375 C 16.25 -5.359375 17.425781 -5.660156 18.8125 -6.265625 C 20.195312 -6.878906 21.554688 -7.738281 22.890625 -8.84375 Z M 17.59375 -37.21875 L 11.265625 -37.21875 L 17.09375 -48.34375 L 26.796875 -48.34375 Z M 17.59375 -37.21875 "/></g></g></g><g fill="#ffffff" fill-opacity="1"><g transform="translate(95.940478, 146.006922)"><g><path d="M 29.15625 -9.21875 C 29.15625 -7.082031 28.613281 -5.253906 27.53125 -3.734375 C 26.457031 -2.210938 24.925781 -1.050781 22.9375 -0.25 C 20.957031 0.550781 18.691406 0.953125 16.140625 0.953125 C 9.390625 0.953125 4.789062 -0.925781 2.34375 -4.6875 L 8.265625 -8.84375 C 9.222656 -7.53125 10.332031 -6.648438 11.59375 -6.203125 C 12.863281 -5.765625 14.21875 -5.546875 15.65625 -5.546875 C 19.4375 -5.546875 21.328125 -6.644531 21.328125 -8.84375 C 21.328125 -9.8125 20.789062 -10.554688 19.71875 -11.078125 C 18.65625 -11.597656 16.984375 -12.140625 14.703125 -12.703125 C 10.410156 -13.640625 7.390625 -14.972656 5.640625 -16.703125 C 3.890625 -18.429688 3.015625 -20.671875 3.015625 -23.421875 C 3.015625 -26.273438 4.109375 -28.625 6.296875 -30.46875 C 8.484375 -32.320312 11.707031 -33.25 15.96875 -33.25 C 18.863281 -33.25 21.414062 -32.785156 23.625 -31.859375 C 25.832031 -30.929688 27.53125 -29.546875 28.71875 -27.703125 L 22.765625 -23.484375 C 21.347656 -25.660156 19.039062 -26.75 15.84375 -26.75 C 14.195312 -26.75 12.953125 -26.460938 12.109375 -25.890625 C 11.265625 -25.328125 10.84375 -24.609375 10.84375 -23.734375 C 10.84375 -22.890625 11.222656 -22.210938 11.984375 -21.703125 C 12.742188 -21.203125 14.242188 -20.675781 16.484375 -20.125 C 20.160156 -19.21875 22.785156 -18.316406 24.359375 -17.421875 C 25.929688 -16.523438 27.125 -15.414062 27.9375 -14.09375 C 28.75 -12.769531 29.15625 -11.144531 29.15625 -9.21875 Z M 29.15625 -9.21875 "/></g></g></g></svg>