<svg width="79" height="79" viewBox="0 0 79 79" fill="none" xmlns="http://www.w3.org/2000/svg">
<g clip-path="url(#clip0_493_792)">
<path d="M58.8964 5.37671H11.0087C6.0638 5.37671 2.05518 9.39464 2.05518 14.351V52.8318C2.05518 57.7881 6.0638 61.8061 11.0087 61.8061H58.8964C63.8413 61.8061 67.8499 57.7881 67.8499 52.8318V14.351C67.8499 9.39464 63.8413 5.37671 58.8964 5.37671Z" fill="white"/>
<path d="M44.1095 60.4463H25.1172V72.0041H44.1095V60.4463Z" fill="white"/>
<path d="M54.9624 72.0042H14.2646V76.0834H54.9624V72.0042Z" fill="white"/>
<path d="M11.721 63.6961H23.564V69.8897H12.9215C12.0058 69.8897 11.2665 70.6308 11.2665 71.5486V77.3411C11.2665 78.259 12.0058 79 12.9215 79H56.7124C57.6281 79 58.3674 78.259 58.3674 77.3411V71.5486C58.3674 70.6308 57.6281 69.8897 56.7124 69.8897H46.0699V63.6961H57.9129C64.3771 63.6961 69.6339 58.4271 69.6339 51.9479V15.7652C69.6339 9.28597 64.3771 4.01697 57.9129 4.01697H11.721C5.2568 4.01697 0 9.28597 0 15.7652V51.9479C0 58.4271 5.2568 63.6961 11.721 63.6961ZM3.3033 15.7652C3.3033 11.1148 7.08141 7.32794 11.721 7.32794H57.9062C62.5457 7.32794 66.3238 11.108 66.3238 15.7652V51.9479C66.3238 56.5982 62.5457 60.3851 57.9062 60.3851H11.721C7.08141 60.3851 3.3033 56.605 3.3033 51.9479V15.7652ZM55.0573 75.689H14.5698V73.2075H55.0573V75.689ZM26.8673 69.8897V63.6961H42.7598V69.8897H26.8673Z" fill="#9FC9AC"/>
<path d="M11.2666 36.1137V42.3753C11.2666 48.8545 16.5234 54.1235 22.9876 54.1235H46.6398C53.104 54.1235 58.3608 48.8545 58.3608 42.3753V36.2361C58.7542 36.0049 59.0187 35.5834 59.0187 35.0939C59.0187 34.6044 58.7542 34.1829 58.3608 33.9517V25.3446C58.3608 18.8654 53.104 13.5964 46.6398 13.5964H22.9876C16.5234 13.5964 11.2666 18.8654 11.2666 25.3446V34.0673C10.9682 34.3121 10.7715 34.6792 10.7715 35.0939C10.7715 35.5086 10.9682 35.8758 11.2666 36.1205V36.1137ZM22.9876 16.9073H46.6398C51.2793 16.9073 55.0575 20.6942 55.0575 25.3446V33.7682H48.7764L46.538 26.1332C46.3753 25.5757 45.8801 25.195 45.3036 25.1814C44.7406 25.1474 44.2047 25.5281 44.0216 26.072L39.9586 37.9494L35.7192 22.2511C35.5836 21.7344 35.1495 21.3605 34.6272 21.2857C34.0981 21.2041 33.5826 21.4557 33.3113 21.918L26.2299 33.7682H14.5835V25.3446C14.5835 20.6942 18.3616 16.9073 23.0012 16.9073H22.9876ZM46.6398 50.8058H22.9876C18.3481 50.8058 14.5699 47.0257 14.5699 42.3685V36.4129H26.9692C27.4304 36.4129 27.8646 36.1681 28.102 35.767L33.976 25.9428L38.5342 42.8105C38.6902 43.3748 39.1853 43.7691 39.7687 43.7895H39.8093C40.3723 43.7895 40.8743 43.4291 41.0574 42.892L45.1747 30.8651L46.5245 35.461C46.6873 36.0185 47.2096 36.4129 47.7929 36.4129H55.0642V42.3685C55.0642 47.0189 51.2861 50.8058 46.6466 50.8058H46.6398ZM57.7028 35.7534H47.7861C47.4944 35.7534 47.2367 35.5562 47.1553 35.2775L45.2222 28.6895L40.4334 42.6881C40.3384 42.96 40.0875 43.1368 39.8093 43.1368V43.4699L39.789 43.1368C39.4973 43.1232 39.2464 42.9328 39.1718 42.6473L34.2134 24.2772L27.5458 35.4339C27.4237 35.631 27.2066 35.7602 26.976 35.7602H12.1009C11.7347 35.7602 11.443 35.461 11.443 35.0939C11.443 34.7268 11.7414 34.4344 12.1009 34.4344H26.5961L33.8743 22.2579C34.0099 22.0268 34.2677 21.9044 34.5322 21.9452C34.7967 21.9792 35.007 22.1696 35.0816 22.4279L39.884 40.2134L44.6456 26.2964C44.7406 26.0312 45.0119 25.8409 45.2832 25.8477C45.5749 25.8477 45.8191 26.0448 45.9004 26.3236L48.2813 34.4344H57.7028C58.0691 34.4344 58.3608 34.7336 58.3608 35.0939C58.3608 35.4542 58.0623 35.7602 57.7028 35.7602V35.7534Z" fill="#9FC9AC"/>
<path d="M12.1211 32.7007L11.436 35.0871L12.1211 36.4604H13.749L16.8421 35.7534H26.969L28.3867 35.291L33.9351 25.093L38.8867 43.0416L39.8024 43.4631L41.0572 42.8988L45.3373 29.0906L46.0631 32.7007L46.8228 34.6112V35.9709L48.6677 36.4128L56.3189 35.9709L58.3606 35.8077V35.0871L57.9468 33.8701L48.8576 33.9313L47.4197 31.4838L46.6532 26.5343L45.4662 25.7728H44.7879L41.6134 33.0951L40.0398 38.3777L38.3983 34.7335L36.3702 27.2278L35.2917 22.3735L34.6134 21.6936L33.0398 22.3599L31.7171 25.4465L26.1211 34.4276L13.5862 33.8565L12.1211 32.7007Z" fill="#9FC9AC"/>
</g>
<defs>
<clipPath id="clip0_493_792">
<rect width="69.6271" height="74.983" fill="white" transform="translate(0 4.01697)"/>
</clipPath>
</defs>
</svg>
