<svg width="97" height="97" viewBox="0 0 97 97" fill="none" xmlns="http://www.w3.org/2000/svg">
<path d="M93 16H4V93H93V16Z" fill="white"/>
<path d="M94.8906 12.2458H76.6572V2.09468C76.6572 0.966777 75.6824 0 74.5638 0C73.4451 0 72.4703 0.966777 72.4703 2.09468V12.2458H24.0502V2.09468C24.0502 0.966777 23.0755 0 21.9568 0C20.8382 0 19.8634 0.966777 19.8634 2.09468V12.2458H2.09341C0.958814 12.2458 0 13.2126 0 14.3405V94.9053C0 96.0332 0.974794 97 2.09341 97H94.8906C96.0252 97 96.984 96.0332 96.984 94.9053V14.3405C96.8242 13.2126 95.8494 12.2458 94.8906 12.2458ZM4.043 16.2741H20.183V24.3306C20.183 25.4585 21.1578 26.4252 22.2764 26.4252C23.3951 26.4252 24.3699 25.4585 24.3699 24.3306V16.2741H72.7899V24.3306C72.7899 25.4585 73.7647 26.4252 74.8834 26.4252C76.002 26.4252 76.9768 25.4585 76.9768 24.3306V16.2741H93.1168V32.387H4.043V16.2741ZM4.043 92.8106V36.4153H92.8132V92.8106H4.043Z" fill="#DEABCA"/>
</svg>
