<svg width="32" height="32" viewBox="0 0 32 32" fill="none" xmlns="http://www.w3.org/2000/svg">
<g clip-path="url(#clip0_171_267)">
<path d="M30.4817 5.57077H1.48666V31.0857H30.4817V5.57077Z" fill="white"/>
<path d="M31.3041 4.03987H25.289V0.69103C25.289 0.318937 24.9674 0 24.5984 0C24.2293 0 23.9077 0.318937 23.9077 0.69103V4.03987H7.9341V0.69103C7.9341 0.318937 7.61252 0 7.24349 0C6.87446 0 6.55288 0.318937 6.55288 0.69103V4.03987H0.69061C0.31631 4.03987 0 4.3588 0 4.7309V31.309C0 31.6811 0.321582 32 0.69061 32H31.3041C31.6784 32 31.9947 31.6811 31.9947 31.309V4.7309C31.942 4.3588 31.6204 4.03987 31.3041 4.03987ZM1.33377 5.36877H6.65832V8.02658C6.65832 8.39867 6.9799 8.71761 7.34893 8.71761C7.71796 8.71761 8.03954 8.39867 8.03954 8.02658V5.36877H24.0132V8.02658C24.0132 8.39867 24.3348 8.71761 24.7038 8.71761C25.0728 8.71761 25.3944 8.39867 25.3944 8.02658V5.36877H30.7189V10.6844H1.33377V5.36877ZM1.33377 30.6179V12.0133H30.6188V30.6179H1.33377Z" fill="#DEABCA"/>
<path d="M14.0547 21.3156C14.9614 21.1561 15.5466 20.3056 15.5466 19.402C15.5466 18.7641 15.283 18.2326 14.7506 17.8605C13.7384 17.1163 12.0883 17.1694 10.9707 17.5947C10.5437 17.7542 10.0639 18.0199 9.74761 18.392L10.918 19.7741C11.2923 19.2425 11.772 18.8704 12.4626 18.8704C12.7842 18.8704 12.9951 18.9236 13.2059 19.0831C13.3641 19.2425 13.4695 19.402 13.4695 19.6678C13.4695 19.9867 13.3641 20.1993 13.0952 20.412C12.6155 20.7841 11.9249 20.6777 11.656 20.6777V22.113C11.8669 22.113 12.7209 22.0598 13.2534 22.3787C13.517 22.5382 13.6277 22.804 13.6277 23.1761C13.6277 23.814 13.2007 24.1329 12.2992 24.1329C11.6086 24.1329 11.0761 23.9734 10.5964 23.4419L9.58418 24.7708C10.2748 25.4618 11.1815 25.8339 12.4046 25.8339C12.8843 25.8339 13.3114 25.7807 13.7331 25.6744C14.8507 25.3555 15.5993 24.6113 15.5993 23.4419C15.7048 22.3256 15.0142 21.5282 14.0547 21.3156Z" fill="#DEABCA"/>
<path d="M20.4442 17.3821H18.5252C18.3671 17.701 17.144 18.4983 16.6115 18.4983V20.2525C17.2494 20.2525 18.2616 19.7741 18.5252 19.402V22.4319H16.8224V24.1329H21.9361V22.4319H20.4442V17.3821Z" fill="#DEABCA"/>
</g>
<defs>
<clipPath id="clip0_171_267">
<rect width="32" height="32" fill="white"/>
</clipPath>
</defs>
</svg>
