<svg width="68" height="60" viewBox="0 0 68 60" fill="none" xmlns="http://www.w3.org/2000/svg">
<g clip-path="url(#clip0_171_263)">
<path d="M34.38 12.65C34.38 12.65 26.73 -2.81001 12.8 1.50999C12.8 1.50999 -4.13 6.54999 2.14 25.28C2.14 25.28 2.84 27.16 5.46 31C8.34 35.22 11.72 39.07 15.44 42.56L33.01 59.03L51.36 42.83C55.33 39.33 58.9 35.38 61.89 31C64.51 27.16 65.21 25.28 65.21 25.28C71.49 6.54999 54.56 1.50999 54.56 1.50999C40.63 -2.81001 34.39 12.65 34.39 12.65" fill="white"/>
<path d="M34.38 12.65C34.38 12.65 26.73 -2.81001 12.8 1.50999C12.8 1.50999 -4.13 6.54999 2.14 25.28C2.14 25.28 2.84 27.16 5.46 31C8.34 35.22 11.72 39.07 15.44 42.56L33.01 59.03L51.36 42.83C55.33 39.33 58.9 35.38 61.89 31C64.51 27.16 65.21 25.28 65.21 25.28C71.49 6.54999 54.56 1.50999 54.56 1.50999C40.63 -2.81001 34.39 12.65 34.39 12.65" stroke="#737DB1" stroke-width="1.5" stroke-linecap="round" stroke-linejoin="round"/>
<path d="M48.71 55.62C56.2432 55.62 62.35 49.5132 62.35 41.98C62.35 34.4468 56.2432 28.34 48.71 28.34C41.1768 28.34 35.07 34.4468 35.07 41.98C35.07 49.5132 41.1768 55.62 48.71 55.62Z" fill="white" stroke="#737DB1" stroke-width="1.5" stroke-miterlimit="10"/>
<path d="M55.37 39.47H51.65V35.65C51.65 35.24 51.24 34.83 50.82 34.83H46.13C45.72 34.83 45.3 35.24 45.3 35.65V39.33H41.58C41.17 39.33 40.75 39.74 40.75 40.15V44.79C40.75 45.2 41.16 45.61 41.58 45.61H45.3V49.29C45.3 49.7 45.71 50.11 46.13 50.11H50.82C51.23 50.11 51.65 49.7 51.65 49.29V45.61H55.37C55.78 45.61 56.2 45.2 56.2 44.79V40.15C56.34 39.74 55.92 39.47 55.37 39.47ZM54.54 43.97H50.82C50.41 43.97 49.99 44.38 49.99 44.79V48.47H47.1V44.79C47.1 44.38 46.69 43.97 46.27 43.97H42.55V41.11H46.27C46.68 41.11 47.1 40.7 47.1 40.29V36.61H49.99V40.29C49.99 40.7 50.4 41.11 50.82 41.11H54.54V43.97Z" fill="#737DB1"/>
</g>
<defs>
<clipPath id="clip0_171_263">
<rect width="67.36" height="59.78" fill="white"/>
</clipPath>
</defs>
</svg>
