<svg width="42" height="45" viewBox="0 0 42 45" fill="none" xmlns="http://www.w3.org/2000/svg">
<g clip-path="url(#clip0_116_258)">
<path d="M35.5271 0.816025H6.64062C3.6578 0.816025 1.23975 3.22733 1.23975 6.20183V29.2955C1.23975 32.27 3.6578 34.6813 6.64062 34.6813H35.5271C38.51 34.6813 40.928 32.27 40.928 29.2955V6.20183C40.928 3.22733 38.51 0.816025 35.5271 0.816025Z" fill="white"/>
<path d="M26.6075 33.8653H15.1511V40.8015H26.6075V33.8653Z" fill="white"/>
<path d="M33.154 40.8015H8.60458V43.2496H33.154V40.8015Z" fill="white"/>
<path d="M7.07024 35.8156H14.2141V39.5326H7.79445C7.24208 39.5326 6.7961 39.9773 6.7961 40.5282V44.0044C6.7961 44.5553 7.24208 45 7.79445 45H34.2096C34.762 45 35.208 44.5553 35.208 44.0044V40.5282C35.208 39.9773 34.762 39.5326 34.2096 39.5326H27.79V35.8156H34.9339C38.8331 35.8156 42.0041 32.6535 42.0041 28.7651V7.0505C42.0041 3.16212 38.8331 0 34.9339 0H7.07024C3.17097 0 0 3.16212 0 7.0505V28.7651C0 32.6535 3.17097 35.8156 7.07024 35.8156ZM1.9926 7.0505C1.9926 4.25968 4.2716 1.98703 7.07024 1.98703H34.9298C37.7284 1.98703 40.0074 4.2556 40.0074 7.0505V28.7651C40.0074 31.5559 37.7284 33.8285 34.9298 33.8285H7.07024C4.2716 33.8285 1.9926 31.56 1.9926 28.7651V7.0505ZM33.2113 43.013H8.7887V41.5237H33.2113V43.013ZM16.2067 39.5326V35.8156H25.7933V39.5326H16.2067Z" fill="#9FC9AC"/>
<path d="M6.7961 19.2624V23.0202C6.7961 26.9086 9.96707 30.0707 13.8663 30.0707H28.1337C32.0329 30.0707 35.2039 26.9086 35.2039 23.0202V19.3358C35.4412 19.1971 35.6008 18.9441 35.6008 18.6504C35.6008 18.3566 35.4412 18.1036 35.2039 17.9649V12.7994C35.2039 8.91105 32.0329 5.74893 28.1337 5.74893H13.8663C9.96707 5.74893 6.7961 8.91105 6.7961 12.7994V18.0343C6.61607 18.1812 6.49742 18.4015 6.49742 18.6504C6.49742 18.8993 6.61607 19.1196 6.7961 19.2665V19.2624ZM13.8663 7.73597H28.1337C30.9323 7.73597 33.2113 10.0086 33.2113 12.7994V17.8547H29.4225L28.0723 13.2727C27.9741 12.9382 27.6754 12.7097 27.3276 12.7015C26.988 12.6811 26.6648 12.9096 26.5543 13.236L24.1035 20.364L21.5462 10.943C21.4644 10.6329 21.2025 10.4085 20.8875 10.3636C20.5683 10.3146 20.2574 10.4656 20.0937 10.743L15.8221 17.8547H8.79688V12.7994C8.79688 10.0086 11.0759 7.73597 13.8745 7.73597H13.8663ZM28.1337 28.0796H13.8663C11.0677 28.0796 8.7887 25.811 8.7887 23.0161V19.4419H16.2681C16.5463 19.4419 16.8082 19.295 16.9514 19.0543L20.4947 13.1585L23.2442 23.2813C23.3383 23.62 23.637 23.8566 23.9889 23.8689H24.0134C24.353 23.8689 24.6558 23.6526 24.7663 23.3303L27.2499 16.1125L28.0641 18.8707C28.1623 19.2053 28.4773 19.4419 28.8292 19.4419H33.2154V23.0161C33.2154 25.807 30.9364 28.0796 28.1377 28.0796H28.1337ZM34.807 19.0461H28.8251C28.6492 19.0461 28.4937 18.9278 28.4446 18.7605L27.2785 14.8069L24.3899 23.2079C24.3326 23.3711 24.1812 23.4772 24.0134 23.4772V23.6771L24.0012 23.4772C23.8252 23.469 23.6738 23.3548 23.6288 23.1834L20.6379 12.1589L16.6159 18.8544C16.5422 18.9727 16.4113 19.0502 16.2722 19.0502H7.29937C7.07842 19.0502 6.90248 18.8707 6.90248 18.6504C6.90248 18.43 7.08251 18.2546 7.29937 18.2546H16.0431L20.4333 10.947C20.5151 10.8083 20.6706 10.7349 20.8302 10.7594C20.9898 10.7798 21.1166 10.894 21.1616 11.049L24.0584 21.7227L26.9307 13.3707C26.988 13.2115 27.1517 13.0973 27.3153 13.1014C27.4913 13.1014 27.6386 13.2197 27.6877 13.387L29.1238 18.2546H34.807C35.028 18.2546 35.2039 18.4341 35.2039 18.6504C35.2039 18.8666 35.0239 19.0502 34.807 19.0502V19.0461Z" fill="#9FC9AC"/>
<path d="M7.31164 17.2142L6.89839 18.6463L7.31164 19.4705H8.29362L10.1594 19.0462H16.2681L17.1232 18.7687L20.4701 12.6485L23.457 23.4201L24.0094 23.673L24.7663 23.3344L27.3481 15.0476L27.7859 17.2142L28.2441 18.3607V19.1767L29.357 19.4419L33.9723 19.1767L35.2039 19.0788V18.6463L34.9543 17.916L29.4716 17.9527L28.6042 16.4838L28.1418 13.5135L27.4258 13.0565H27.0167L25.1018 17.4508L24.1526 20.6211L23.1624 18.4341L21.939 13.9296L21.2885 11.0164L20.8793 10.6084L19.9301 11.0083L19.1322 12.8606L15.7566 18.2505L8.19542 17.9078L7.31164 17.2142Z" fill="#9FC9AC"/>
</g>
<defs>
<clipPath id="clip0_116_258">
<rect width="42" height="45" fill="white"/>
</clipPath>
</defs>
</svg>
