<svg width="52" height="59" viewBox="0 0 52 59" fill="none" xmlns="http://www.w3.org/2000/svg">
<g clip-path="url(#clip0_116_298)">
<path d="M39.9787 11.8201L36.3093 10.1496L31.0613 11.8201L9.10934 38.1668V43.506L12.1493 46.5456L14.976 47.6821H18.2933L42.64 19.0517V14.7698L39.9787 11.8201Z" fill="white"/>
<path d="M42.64 4.49332L46.976 8.56374L43.2427 13.3214L41.8507 13.9134L39.9787 11.1329L37.7813 9.51527L42.64 4.49332Z" fill="white"/>
<path d="M41.0187 0.814087L45.536 1.91892L50.0533 7.06245L51.9947 9.51528L47.8507 10.9849L45.536 6.71356L41.8507 4.80522L39.9787 2.74886L41.0187 0.814087Z" fill="white"/>
<path d="M39.5094 0.676824C38.5814 1.76579 39.232 3.52612 40.5654 5.29173L37.1467 9.30401C34.512 8.89168 31.728 9.8062 29.888 11.9683L9.73869 35.6243C8.37869 37.2208 7.72803 39.2454 7.90403 41.3229C8.05336 43.0779 8.78403 44.6903 9.97336 45.9642L0.229359 57.4037C-0.117308 57.8108 -0.0639747 58.424 0.346692 58.7676C0.528025 58.9209 0.752025 58.9949 0.976025 58.9949C1.25336 58.9949 1.53069 58.8786 1.72269 58.6513L11.4667 47.2118C12.7787 48.0576 14.2667 48.4805 15.76 48.4805C18.0054 48.4805 20.2347 47.5396 21.792 45.7105L41.9414 22.0545C43.3014 20.458 43.952 18.4334 43.776 16.3559C43.7227 15.7162 43.584 15.103 43.3814 14.511L46.7894 10.5093C47.152 10.6943 47.504 10.8582 47.8507 10.9903C48.688 11.3181 49.3547 11.4449 49.8934 11.4449C50.752 11.4449 51.264 11.1172 51.5627 10.763C53.024 9.04498 50.5707 5.64591 47.6694 3.21952C44.768 0.793122 40.976 -1.04121 39.5147 0.676824H39.5094ZM46.4054 4.69439C49.1574 6.9992 50.096 8.98154 50.0534 9.49431C49.792 9.56303 49.088 9.43616 48.0907 8.97626L48.208 8.83882C48.3734 8.64322 48.4587 8.38948 48.4374 8.13574C48.416 7.882 48.2934 7.64412 48.096 7.47496L43.36 3.51555C42.9494 3.17194 42.3307 3.2248 41.984 3.63185L41.8667 3.76929C41.2427 2.87062 40.9974 2.20455 41.024 1.94024C41.5307 1.81337 43.6587 2.39486 46.4107 4.69967L46.4054 4.69439ZM41.8294 16.5198C41.9627 18.0845 41.472 19.6069 40.448 20.8069L39.952 21.3937L38.2187 19.9453C37.9094 19.6862 37.4454 19.7232 37.1894 20.0298C36.928 20.3364 36.9654 20.7963 37.2747 21.0554L39.008 22.5038L37.3067 24.502L34.1867 21.8906C33.8774 21.6316 33.4134 21.6686 33.152 21.9752C32.8907 22.2818 32.928 22.7417 33.2374 23.0007L36.3574 25.6121L34.48 27.8165L32.7467 26.3681C32.4374 26.109 31.9734 26.146 31.712 26.4527C31.4507 26.7593 31.488 27.2192 31.7974 27.4782L33.5307 28.9266L32.6774 29.9257L31.824 30.9248L28.704 28.3134C28.3947 28.0544 27.9307 28.0914 27.6694 28.398C27.408 28.7046 27.4454 29.1645 27.7547 29.4235L30.8747 32.0349L29.4347 33.7213L27.7014 32.2728C27.392 32.0138 26.928 32.0508 26.6667 32.3574C26.4054 32.664 26.4427 33.1239 26.752 33.3829L28.4854 34.8314L26.784 36.8296L23.664 34.2182C23.3547 33.9591 22.8907 33.9961 22.6294 34.3028C22.368 34.6094 22.4054 35.0693 22.7147 35.323L25.8347 37.9344L23.9574 40.1388L22.224 38.6904C21.9147 38.4313 21.4507 38.4683 21.1947 38.7749C20.9334 39.0815 20.9707 39.5414 21.28 39.7952L23.0134 41.2436L21.312 43.2418L18.192 40.6304C17.8827 40.3714 17.4187 40.4084 17.1574 40.715C16.896 41.0216 16.9334 41.4815 17.2427 41.7405L20.368 44.3519L20.2827 44.4524C18.1707 46.9316 14.4214 47.2435 11.92 45.1502C10.7094 44.1352 9.96803 42.7185 9.83469 41.1538C9.70136 39.589 10.192 38.0666 11.2107 36.8666L23.5947 22.3294L31.36 13.2106C32.384 12.0106 33.8134 11.2758 35.392 11.1436C35.5627 11.1278 35.7334 11.1225 35.8987 11.1225C37.296 11.1225 38.6347 11.6035 39.7174 12.5128C40.928 13.5224 41.6694 14.9445 41.8027 16.5092L41.8294 16.5198ZM41.0027 11.0379C40.4427 10.5674 39.8294 10.1974 39.1894 9.90664L42.8427 5.61948L46.0854 8.33134L42.432 12.6185C42.032 12.037 41.5574 11.5031 41.0027 11.0379Z" fill="#DF6F7D"/>
<path d="M22.5333 22.5142C25.888 25.2789 29.2373 28.0436 32.592 30.8084C33.2213 31.3317 34.1387 30.433 33.4987 29.9097C30.144 27.145 26.7947 24.3803 23.44 21.6155C22.8107 21.0922 21.8933 21.9909 22.5333 22.5142Z" fill="#DF6F7D"/>
</g>
<defs>
<clipPath id="clip0_116_298">
<rect width="52" height="59" fill="white"/>
</clipPath>
</defs>
</svg>
