<svg width="62" height="76" viewBox="0 0 62 76" fill="none" xmlns="http://www.w3.org/2000/svg">
<g clip-path="url(#clip0_349_1514)">
<path d="M43.3076 73.8838H6.88977C4.16334 73.8838 1.95557 71.6618 1.95557 68.9178V6.89883C1.95557 4.15482 4.16334 1.9328 6.88977 1.9328H55.1945C57.921 1.9328 60.1288 4.15482 60.1288 6.89883V59.0704C60.1288 61.8144 46.034 73.8838 43.3076 73.8838Z" fill="white"/>
<path d="M45.305 75.605C45.6554 75.605 46.0059 75.4709 46.2722 75.217L61.3201 60.9044C61.6075 60.6293 61.7477 60.2625 61.7477 59.8816C61.8949 59.6347 61.986 59.3455 61.986 59.028V5.99592C61.986 2.68758 59.3226 0 56.0425 0H5.94348C2.66335 0 0 2.68758 0 5.99592V70.0041C0 73.3124 2.66335 76 5.94348 76H44.2537C44.6532 76 45.0176 75.8519 45.305 75.605ZM46.7138 70.907V65.4049C46.7138 63.1335 48.5431 61.2853 50.7929 61.2853H56.8205L46.7138 70.907ZM42.6066 72.6705H5.94348C4.48564 72.6705 3.30115 71.4713 3.30115 70.0041V5.99592C3.30115 4.52163 4.48564 3.3295 5.94348 3.3295H56.0565C57.5144 3.3295 58.6988 4.52868 58.6988 5.99592V57.3633H50.9962C46.3703 57.3633 42.6066 61.1583 42.6066 65.8281V72.6705Z" fill="#737DB1"/>
<path d="M13.3728 20.2732H48.7113C49.5944 20.2732 50.3163 19.7442 50.3163 19.0952V16.9861C50.3163 16.3371 49.6014 15.808 48.7113 15.808H13.3728C12.4897 15.808 11.7678 16.3371 11.7678 16.9861V19.0952C11.7678 19.7442 12.4827 20.2732 13.3728 20.2732ZM13.6952 17.2259H48.3889V18.8624H13.6952V17.2259Z" fill="#737DB1"/>
<path d="M49.6155 16.7462H12.4688V19.5678H49.6155V16.7462Z" fill="#737DB1"/>
<path d="M13.3728 30.1488H48.7113C49.5944 30.1488 50.3163 29.6198 50.3163 28.9708V26.8617C50.3163 26.2127 49.6014 25.6837 48.7113 25.6837H13.3728C12.4897 25.6837 11.7678 26.2127 11.7678 26.8617V28.9708C11.7678 29.6198 12.4827 30.1488 13.3728 30.1488ZM13.6952 27.1015H48.3889V28.738H13.6952V27.1015Z" fill="#737DB1"/>
<path d="M49.6155 26.6219H12.4688V29.4435H49.6155V26.6219Z" fill="#737DB1"/>
<path d="M13.3728 40.0245H48.7113C49.5944 40.0245 50.3163 39.4955 50.3163 38.8465V36.7373C50.3163 36.0884 49.6014 35.5593 48.7113 35.5593H13.3728C12.4897 35.5593 11.7678 36.0884 11.7678 36.7373V38.8465C11.7678 39.4955 12.4827 40.0245 13.3728 40.0245ZM13.6952 36.9772H48.3889V38.6137H13.6952V36.9772Z" fill="#737DB1"/>
<path d="M49.6155 36.4975H12.4688V39.3191H49.6155V36.4975Z" fill="#737DB1"/>
<path d="M46.132 72.6705L59.2455 60.721L47.6038 59.7758L44.8003 64.7136L46.132 72.6705Z" fill="#737DB1"/>
</g>
<defs>
<clipPath id="clip0_349_1514">
<rect width="62" height="76" fill="white"/>
</clipPath>
</defs>
</svg>
