<svg width="42" height="27" viewBox="0 0 42 27" fill="none" xmlns="http://www.w3.org/2000/svg">
<g clip-path="url(#clip0_116_266)">
<path d="M13.0561 26.19H28.902L28.2367 21.5332L25.342 17.4803L21.4465 19.3035L16.3523 18.061C16.3523 18.061 12.1571 20.9642 13.0561 26.19Z" fill="white"/>
<path d="M4.36601 14.8674C4.36601 14.8674 7.13485 16.0287 9.19649 15.7384C9.19649 15.7384 10.9345 15.5642 13.6434 14.6352L16.0527 18.061L13.0561 22.9965H1.06978V20.3719L4.36601 14.8674Z" fill="white"/>
<path d="M37.9277 14.8674C37.9277 14.8674 35.1588 16.0287 33.0972 15.7384C33.0972 15.7384 31.3592 15.5642 28.6503 14.6352L26.241 18.061L29.2376 22.9965H41.2239V20.3719L37.9277 14.8674Z" fill="white"/>
<path d="M8.86087 12.5448C12.1708 12.5448 14.854 9.9452 14.854 6.73838C14.854 3.53157 12.1708 0.931931 8.86087 0.931931C5.55095 0.931931 2.86772 3.53157 2.86772 6.73838C2.86772 9.9452 5.55095 12.5448 8.86087 12.5448Z" fill="white"/>
<path d="M21.4465 15.7384C24.7564 15.7384 27.4396 13.1388 27.4396 9.93194C27.4396 6.72513 24.7564 4.12549 21.4465 4.12549C18.1366 4.12549 15.4533 6.72513 15.4533 9.93194C15.4533 13.1388 18.1366 15.7384 21.4465 15.7384Z" fill="white"/>
<path d="M33.1331 12.5448C36.4431 12.5448 39.1263 9.9452 39.1263 6.73838C39.1263 3.53157 36.4431 0.931931 33.1331 0.931931C29.8232 0.931931 27.14 3.53157 27.14 6.73838C27.14 9.9452 29.8232 12.5448 33.1331 12.5448Z" fill="white"/>
<path d="M12.1601 26.2858C12.1601 26.4745 12.235 26.6574 12.3699 26.791C12.5077 26.9245 12.6935 27 12.8883 27H28.9829C29.3754 26.9971 29.6961 26.6952 29.708 26.3148C29.708 26.2161 29.738 25.2203 29.5223 23.8529H41.2718C41.6644 23.8529 41.985 23.5481 41.997 23.1706C42.006 22.9297 42.1558 17.219 38.458 13.9384C38.1973 13.7061 37.8048 13.6916 37.5261 13.8977C37.4842 13.9297 33.1841 17.0594 29.1836 13.9006C28.908 13.6829 28.5154 13.6887 28.2487 13.9152C28.1648 13.9877 26.9872 15.001 25.9683 16.9577C25.7316 16.859 25.4529 16.8852 25.2372 17.0419C25.0604 17.1726 20.8741 20.1861 16.8947 17.0448C16.6999 16.891 16.4452 16.8532 16.2175 16.9229C15.7021 15.8545 14.9949 14.8094 14.009 13.9355C13.7483 13.7032 13.3557 13.6887 13.0771 13.8948C13.0351 13.9268 8.73502 17.0565 4.73459 13.8977C4.4589 13.68 4.06635 13.6858 3.79966 13.9123C3.64683 14.0429 0.0898973 17.1058 0 23.1387C0 23.3274 0.0719178 23.5074 0.20976 23.6439C0.347603 23.7774 0.53339 23.8529 0.728168 23.8529H12.4058C12.268 24.6019 12.1751 25.409 12.1631 26.2858H12.1601ZM28.8001 15.3842C32.6027 17.9536 36.4833 16.1681 37.8767 15.3581C40.0402 17.6081 40.4538 21.0048 40.5287 22.4448H29.2316C28.863 21.0077 28.2128 19.3906 27.0711 18.0203C27.6734 16.7429 28.3716 15.8574 28.8031 15.3871L28.8001 15.3842ZM16.5111 18.5313C20.3138 21.1006 24.1943 19.3152 25.5848 18.5052C27.7483 20.7552 28.1618 24.1519 28.2397 25.5919H13.6434C13.9011 21.8061 15.6931 19.4313 16.5081 18.5342L16.5111 18.5313ZM1.4833 22.4448C1.74101 18.6561 3.53296 16.2813 4.34803 15.3842C8.15068 17.9536 12.0312 16.1681 13.4247 15.3581C14.1708 16.1332 14.7042 17.0477 15.0937 17.9681C14.3716 18.8361 13.3647 20.3255 12.7384 22.4419H1.4833V22.4448Z" fill="#419BAA"/>
<path d="M1.89384 6.66872C1.89384 10.3442 4.98331 13.3316 8.77397 13.3316C10.6109 13.3316 12.3369 12.6377 13.6374 11.3777C13.8172 11.2036 13.982 11.0207 14.1408 10.829C14.6473 14.0226 17.497 16.4787 20.9341 16.4787C22.771 16.4787 24.497 15.7848 25.7975 14.5219C26.8823 13.471 27.5535 12.1297 27.7483 10.6839C29.0069 12.2894 30.9906 13.3287 33.226 13.3287C35.0629 13.3287 36.789 12.6348 38.0895 11.3748C39.39 10.1148 40.1062 8.43968 40.1062 6.66001C40.1062 2.98452 37.0167 -0.00579834 33.223 -0.00579834C31.3861 -0.00579834 29.6601 0.688073 28.3596 1.95098C27.2748 3.00194 26.6036 4.34323 26.4088 5.78904C25.1503 4.18356 23.1665 3.1413 20.9311 3.1413C19.0942 3.1413 17.3682 3.83517 16.0676 5.09807C15.8878 5.27227 15.723 5.45517 15.5642 5.64678C15.0578 2.45614 12.2081 8.11089e-06 8.77397 8.11089e-06C6.93707 8.11089e-06 5.21105 0.693879 3.91053 1.95678C2.61002 3.21678 1.89384 4.89194 1.89384 6.67162V6.66872ZM29.3904 2.95259C30.4182 1.95969 31.7787 1.41098 33.229 1.41098C36.2196 1.41098 38.6558 3.76839 38.6558 6.66872C38.6558 8.07097 38.0895 9.39194 37.0646 10.3848C36.0398 11.3807 34.6764 11.9265 33.229 11.9265C30.2384 11.9265 27.8022 9.56904 27.8022 6.67162C27.8022 5.26936 28.3686 3.94839 29.3934 2.95259H29.3904ZM17.0985 6.09678C18.1233 5.10098 19.4867 4.55517 20.9341 4.55517C23.9247 4.55517 26.3609 6.91259 26.3609 9.81291C26.3609 11.2152 25.7975 12.5361 24.7697 13.5319C23.7449 14.5248 22.3814 15.0736 20.9371 15.0736C17.9465 15.0736 15.5103 12.7161 15.5103 9.81872C15.5103 8.41646 16.0736 7.09549 17.1015 6.09968L17.0985 6.09678ZM8.77397 1.40807C11.7646 1.40807 14.2008 3.76549 14.2008 6.66581C14.2008 8.06807 13.6344 9.38904 12.6096 10.3819C11.5848 11.3777 10.2213 11.9236 8.77397 11.9236C5.78339 11.9236 3.34718 9.56614 3.34718 6.66872C3.34718 5.26646 3.91353 3.94549 4.93836 2.94969C5.96319 1.95678 7.32663 1.40807 8.77697 1.40807H8.77397Z" fill="#419BAA"/>
</g>
<defs>
<clipPath id="clip0_116_266">
<rect width="42" height="27" fill="white"/>
</clipPath>
</defs>
</svg>
