<svg width="54" height="66" viewBox="0 0 54 66" fill="none" xmlns="http://www.w3.org/2000/svg">
<g clip-path="url(#clip0_436_474)">
<path d="M37.7194 64.1623H6.00066C3.62603 64.1623 1.70312 62.2326 1.70312 59.8496V5.9911C1.70312 3.60814 3.62603 1.6785 6.00066 1.6785H48.0726C50.4472 1.6785 52.3701 3.60814 52.3701 5.9911V51.298C52.3701 53.6809 40.094 64.1623 37.7194 64.1623Z" fill="white"/>
<path d="M39.4592 65.657C39.7644 65.657 40.0696 65.5406 40.3016 65.32L53.4079 52.8907C53.6582 52.6518 53.7802 52.3332 53.7802 52.0024C53.9084 51.788 53.9878 51.5368 53.9878 51.2612V5.20698C53.9878 2.33395 51.6681 0 48.8112 0H5.17658C2.31969 0 0 2.33395 0 5.20698V60.793C0 63.666 2.31969 66 5.17658 66H38.5435C38.8915 66 39.2089 65.8714 39.4592 65.657ZM40.6862 61.5771V56.799C40.6862 54.8264 42.2795 53.2215 44.239 53.2215H49.4888L40.6862 61.5771ZM37.109 63.1086H5.17658C3.90685 63.1086 2.8752 62.0672 2.8752 60.793V5.20698C2.8752 3.92668 3.90685 2.89141 5.17658 2.89141H48.8234C50.0932 2.89141 51.1248 3.9328 51.1248 5.20698V49.8155H44.416C40.3871 49.8155 37.109 53.1112 37.109 57.1665V63.1086Z" fill="#EFBA43"/>
<path d="M11.6473 17.6057H42.426C43.1951 17.6057 43.8239 17.1463 43.8239 16.5827V14.7511C43.8239 14.1875 43.2012 13.7281 42.426 13.7281H11.6473C10.8781 13.7281 10.2494 14.1875 10.2494 14.7511V16.5827C10.2494 17.1463 10.872 17.6057 11.6473 17.6057ZM11.9281 14.9594H42.1452V16.3806H11.9281V14.9594Z" fill="#EFBA43"/>
<path d="M43.2134 14.5428H10.8598V16.9931H43.2134V14.5428Z" fill="#EFBA43"/>
<path d="M11.6473 26.1819H42.426C43.1951 26.1819 43.8239 25.7225 43.8239 25.1589V23.3273C43.8239 22.7637 43.2012 22.3043 42.426 22.3043H11.6473C10.8781 22.3043 10.2494 22.7637 10.2494 23.3273V25.1589C10.2494 25.7225 10.872 26.1819 11.6473 26.1819ZM11.9281 23.5356H42.1452V24.9568H11.9281V23.5356Z" fill="#EFBA43"/>
<path d="M43.2134 23.119H10.8598V25.5693H43.2134V23.119Z" fill="#EFBA43"/>
<path d="M11.6473 34.7581H42.426C43.1951 34.7581 43.8239 34.2987 43.8239 33.7351V31.9035C43.8239 31.3399 43.2012 30.8805 42.426 30.8805H11.6473C10.8781 30.8805 10.2494 31.3399 10.2494 31.9035V33.7351C10.2494 34.2987 10.872 34.7581 11.6473 34.7581ZM11.9281 32.1118H42.1452V33.533H11.9281V32.1118Z" fill="#EFBA43"/>
<path d="M43.2134 31.6952H10.8598V34.1455H43.2134V31.6952Z" fill="#EFBA43"/>
<path d="M40.1795 63.1086L51.6009 52.7314L41.4614 51.9105L39.0197 56.1986L40.1795 63.1086Z" fill="#EFBA43"/>
</g>
<defs>
<clipPath id="clip0_436_474">
<rect width="54" height="66" fill="white"/>
</clipPath>
</defs>
</svg>
