<svg width="36" height="44" viewBox="0 0 36 44" fill="none" xmlns="http://www.w3.org/2000/svg">
<g clip-path="url(#clip0_116_224)">
<path d="M25.1463 42.7748H4.00045C2.41736 42.7748 1.13542 41.4884 1.13542 39.8998V3.99406C1.13542 2.40542 2.41736 1.11899 4.00045 1.11899H32.0484C33.6315 1.11899 34.9134 2.40542 34.9134 3.99406V34.1986C34.9134 35.7873 26.7294 42.7748 25.1463 42.7748Z" fill="white"/>
<path d="M26.3061 43.7713C26.5096 43.7713 26.7131 43.6937 26.8677 43.5467L35.6052 35.2604C35.7721 35.1012 35.8535 34.8888 35.8535 34.6683C35.939 34.5253 35.9919 34.3579 35.9919 34.1741V3.47132C35.9919 1.55597 34.4454 0 32.5408 0H3.45105C1.54646 0 0 1.55597 0 3.47132V40.5287C0 42.444 1.54646 44 3.45105 44H25.6957C25.9277 44 26.1393 43.9142 26.3061 43.7713ZM27.1241 41.0514V37.866C27.1241 36.551 28.1863 35.481 29.4927 35.481H32.9925L27.1241 41.0514ZM24.7393 42.0724H3.45105C2.60457 42.0724 1.9168 41.3781 1.9168 40.5287V3.47132C1.9168 2.61778 2.60457 1.9276 3.45105 1.9276H32.549C33.3954 1.9276 34.0832 2.62187 34.0832 3.47132V33.2103H29.6107C26.9247 33.2103 24.7393 35.4075 24.7393 38.111V42.0724Z" fill="#EFBA43"/>
<path d="M7.76486 11.7372H28.284C28.7967 11.7372 29.2159 11.4309 29.2159 11.0551V9.83405C29.2159 9.45833 28.8008 9.15204 28.284 9.15204H7.76486C7.25209 9.15204 6.83292 9.45833 6.83292 9.83405V11.0551C6.83292 11.4309 7.24802 11.7372 7.76486 11.7372ZM7.95207 9.9729H28.0968V10.9204H7.95207V9.9729Z" fill="#EFBA43"/>
<path d="M28.809 9.69519H7.23988V11.3288H28.809V9.69519Z" fill="#EFBA43"/>
<path d="M7.76486 17.4546H28.284C28.7967 17.4546 29.2159 17.1483 29.2159 16.7726V15.5515C29.2159 15.1758 28.8008 14.8695 28.284 14.8695H7.76486C7.25209 14.8695 6.83292 15.1758 6.83292 15.5515V16.7726C6.83292 17.1483 7.24802 17.4546 7.76486 17.4546ZM7.95207 15.6904H28.0968V16.6378H7.95207V15.6904Z" fill="#EFBA43"/>
<path d="M28.809 15.4127H7.23988V17.0462H28.809V15.4127Z" fill="#EFBA43"/>
<path d="M7.76486 23.1721H28.284C28.7967 23.1721 29.2159 22.8658 29.2159 22.4901V21.269C29.2159 20.8933 28.8008 20.587 28.284 20.587H7.76486C7.25209 20.587 6.83292 20.8933 6.83292 21.269V22.4901C6.83292 22.8658 7.24802 23.1721 7.76486 23.1721ZM7.95207 21.4078H28.0968V22.3553H7.95207V21.4078Z" fill="#EFBA43"/>
<path d="M28.809 21.1301H7.23988V22.7637H28.809V21.1301Z" fill="#EFBA43"/>
<path d="M26.7863 42.0724L34.4006 35.1543L27.641 34.607L26.0131 37.4658L26.7863 42.0724Z" fill="#EFBA43"/>
</g>
<defs>
<clipPath id="clip0_116_224">
<rect width="36" height="44" fill="white"/>
</clipPath>
</defs>
</svg>
