<svg width="15" height="15" viewBox="0 0 15 15" fill="none" xmlns="http://www.w3.org/2000/svg">
<g clip-path="url(#clip0_351_3731)">
<path d="M6.875 2.49999H2.5C2.16848 2.49999 1.85054 2.63169 1.61612 2.86611C1.3817 3.10053 1.25 3.41847 1.25 3.74999V12.5C1.25 12.8315 1.3817 13.1495 1.61612 13.3839C1.85054 13.6183 2.16848 13.75 2.5 13.75H11.25C11.5815 13.75 11.8995 13.6183 12.1339 13.3839C12.3683 13.1495 12.5 12.8315 12.5 12.5V8.12499M11.5625 1.56249C11.8111 1.31385 12.1484 1.17416 12.5 1.17416C12.8516 1.17416 13.1889 1.31385 13.4375 1.56249C13.6861 1.81113 13.8258 2.14836 13.8258 2.49999C13.8258 2.85162 13.6861 3.18885 13.4375 3.43749L7.5 9.37499L5 9.99999L5.625 7.49999L11.5625 1.56249Z" stroke="#DEABCA" stroke-width="2" stroke-linecap="round" stroke-linejoin="round"/>
</g>
<defs>
<clipPath id="clip0_351_3731">
<rect width="15" height="15" fill="white"/>
</clipPath>
</defs>
</svg>
