<svg width="59" height="59" viewBox="0 0 59 59" fill="none" xmlns="http://www.w3.org/2000/svg">
<g clip-path="url(#clip0_436_467)">
<path d="M56.2007 10.2711H2.74103V57.3143H56.2007V10.2711Z" fill="white"/>
<path d="M57.717 7.4485H46.6265V1.27409C46.6265 0.58804 46.0336 0 45.3532 0C44.6728 0 44.0799 0.58804 44.0799 1.27409V7.4485H14.6285V1.27409C14.6285 0.58804 14.0356 0 13.3552 0C12.6748 0 12.0819 0.58804 12.0819 1.27409V7.4485H1.27331C0.583196 7.4485 0 8.03654 0 8.72259V57.7259C0 58.412 0.592916 59 1.27331 59H57.717C58.4071 59 58.9903 58.412 58.9903 57.7259V8.72259C58.8931 8.03654 58.3002 7.4485 57.717 7.4485ZM2.45914 9.89867H12.2763V14.799C12.2763 15.4851 12.8692 16.0731 13.5496 16.0731C14.23 16.0731 14.8229 15.4851 14.8229 14.799V9.89867H44.2743V14.799C44.2743 15.4851 44.8672 16.0731 45.5476 16.0731C46.228 16.0731 46.8209 15.4851 46.8209 14.799V9.89867H56.6381V19.6993H2.45914V9.89867ZM2.45914 56.4518V22.1495H56.4534V56.4518H2.45914Z" fill="#DEABCA"/>
<path d="M25.9133 39.3007C27.5852 39.0066 28.6641 37.4385 28.6641 35.7724C28.6641 34.5963 28.1781 33.6163 27.1964 32.9302C25.3301 31.5581 22.2878 31.6561 20.2272 32.4402C19.4399 32.7342 18.5554 33.2243 17.9722 33.9103L20.13 36.4585C20.8201 35.4784 21.7046 34.7924 22.9779 34.7924C23.5708 34.7924 23.9596 34.8904 24.3484 35.1844C24.64 35.4784 24.8344 35.7724 24.8344 36.2625C24.8344 36.8505 24.64 37.2425 24.1443 37.6346C23.2598 38.3206 21.9865 38.1246 21.4908 38.1246V40.7708C21.8796 40.7708 23.4542 40.6728 24.4359 41.2608C24.9219 41.5548 25.126 42.0449 25.126 42.7309C25.126 43.907 24.3387 44.495 22.6766 44.495C21.4033 44.495 20.4216 44.201 19.5371 43.2209L17.6708 45.6711C18.9441 46.9452 20.616 47.6312 22.871 47.6312C23.7555 47.6312 24.5428 47.5332 25.3204 47.3372C27.3811 46.7492 28.7613 45.3771 28.7613 43.2209C28.9557 41.1628 27.6824 39.6927 25.9133 39.3007Z" fill="#DEABCA"/>
<path d="M37.6939 32.0482H34.1558C33.8642 32.6362 31.6092 34.1063 30.6275 34.1063V37.3405C31.8036 37.3405 33.6698 36.4585 34.1558 35.7724V41.3588H31.0163V44.495H40.4446V41.3588H37.6939V32.0482Z" fill="#DEABCA"/>
</g>
<defs>
<clipPath id="clip0_436_467">
<rect width="59" height="59" fill="white"/>
</clipPath>
</defs>
</svg>
