<svg xmlns="http://www.w3.org/2000/svg" xmlns:xlink="http://www.w3.org/1999/xlink" width="500" zoomAndPan="magnify" viewBox="0 0 375 374.999991" height="500" preserveAspectRatio="xMidYMid meet" version="1.0"><rect x="-37.5" width="450" fill="#ffffff" y="-37.499999" height="449.999989" fill-opacity="1"/><rect x="-37.5" width="450" fill="#ffffff" y="-37.499999" height="449.999989" fill-opacity="1"/><path fill="#ace893" d="M 187.5 0 C 84.113281 0 0 84.113281 0 187.5 C 0 290.886719 84.113281 375 187.5 375 C 290.886719 375 375 290.886719 375 187.5 C 375 84.113281 290.886719 0 187.5 0 Z M 187.5 48.914062 C 218.96875 48.914062 244.566406 74.511719 244.566406 105.976562 C 244.566406 137.445312 218.96875 163.042969 187.5 163.042969 C 156.03125 163.042969 130.433594 137.445312 130.433594 105.976562 C 130.433594 74.511719 156.03125 48.914062 187.5 48.914062 Z M 285.324219 293.476562 L 89.675781 293.476562 C 85.175781 293.476562 81.523438 289.824219 81.523438 285.324219 C 81.523438 226.890625 129.066406 179.347656 187.5 179.347656 C 245.933594 179.347656 293.476562 226.890625 293.476562 285.324219 C 293.476562 289.824219 289.824219 293.476562 285.324219 293.476562 Z M 285.324219 293.476562 " fill-opacity="1" fill-rule="nonzero"/></svg>