<svg width="17" height="17" viewBox="0 0 17 17" fill="none" xmlns="http://www.w3.org/2000/svg">
<path d="M13.8833 14.875L9.42083 10.4125C9.06667 10.6958 8.65937 10.9201 8.19896 11.0854C7.73854 11.2507 7.24861 11.3333 6.72917 11.3333C5.44236 11.3333 4.3533 10.8877 3.46198 9.99635C2.57066 9.10503 2.125 8.01597 2.125 6.72917C2.125 5.44236 2.57066 4.3533 3.46198 3.46198C4.3533 2.57066 5.44236 2.125 6.72917 2.125C8.01597 2.125 9.10503 2.57066 9.99635 3.46198C10.8877 4.3533 11.3333 5.44236 11.3333 6.72917C11.3333 7.24861 11.2507 7.73854 11.0854 8.19896C10.9201 8.65937 10.6958 9.06667 10.4125 9.42083L14.875 13.8833L13.8833 14.875ZM6.72917 9.91667C7.61458 9.91667 8.36719 9.60677 8.98698 8.98698C9.60677 8.36719 9.91667 7.61458 9.91667 6.72917C9.91667 5.84375 9.60677 5.09115 8.98698 4.47135C8.36719 3.85156 7.61458 3.54167 6.72917 3.54167C5.84375 3.54167 5.09115 3.85156 4.47135 4.47135C3.85156 5.09115 3.54167 5.84375 3.54167 6.72917C3.54167 7.61458 3.85156 8.36719 4.47135 8.98698C5.09115 9.60677 5.84375 9.91667 6.72917 9.91667Z" fill="#27325A"/>
</svg>
