<svg width="162" height="28" viewBox="0 0 162 28" fill="none" xmlns="http://www.w3.org/2000/svg">
<g clip-path="url(#clip0_373_929)">
<path d="M18.7179 6.42367C19.5657 7.20304 20.1995 8.13009 20.6029 9.2048L25.484 9.22941C25.484 7.49838 24.1176 5.14386 23.064 3.91327L18.7179 6.41547V6.42367Z" fill="#ECC3DC"/>
<path d="M39.3784 0.434814H34.4067V6.85849H39.3784V0.434814Z" fill="#F5C85A"/>
<path d="M71.5217 7.19482V5.18486C71.5217 2.56781 69.7355 0.442993 67.5378 0.442993H66.5582V7.19482H71.5217Z" fill="#5CB1BF"/>
<path d="M87.3339 21.1333H82.3705V27.557H87.3339V21.1333Z" fill="#ED808E"/>
<path d="M123.338 0.434814H125.823C127.988 0.434814 129.742 2.18225 129.742 4.33988V4.80751H123.338V0.434814Z" fill="#A8D3B5"/>
<path d="M159.959 21.6666L155.045 22.9054L156.452 27.155L156.592 27.557H162L159.959 21.6666Z" fill="#7A85C0"/>
<path d="M20.6029 18.787C20.0926 20.1488 19.2283 21.2728 18.0101 22.1588C16.7918 23.0448 15.3184 23.4878 13.5899 23.4878C11.8613 23.4878 10.3797 23.0858 9.07911 22.2901C7.77857 21.4861 6.76612 20.3786 6.05 18.9593C5.33388 17.54 4.9717 15.8828 4.9717 13.9877C4.9717 12.0926 5.33388 10.4436 6.05 9.03252C6.76612 7.62145 7.77857 6.52212 9.07911 5.71814C10.3797 4.91415 11.886 4.52036 13.5899 4.52036C15.0303 4.52036 16.2897 4.83211 17.3763 5.44741L21.9035 2.83856C21.0145 2.1002 19.9938 1.47671 18.8332 0.984471C17.2857 0.328157 15.5407 0 13.5899 0C11.639 0 9.83639 0.344565 8.1819 1.03369C6.52741 1.72282 5.08694 2.69909 3.85224 3.94609C2.62578 5.19308 1.67095 6.678 1.00422 8.38441C0.337483 10.099 0 11.9613 0 13.9713C0 15.9812 0.337483 17.8435 1.02068 19.5417C1.70388 21.24 2.65871 22.7249 3.88517 23.9801C5.11163 25.2435 6.55211 26.2279 8.19836 26.9253C9.84462 27.6308 11.639 27.9836 13.5899 27.9836C15.5407 27.9836 17.2857 27.6554 18.8332 26.9991C20.3807 26.3428 21.6894 25.4732 22.7595 24.3985C23.8296 23.3156 24.9161 21.4122 25.4841 18.7706H20.6029V18.787Z" fill="#27325A"/>
<path d="M52.6885 0.434814H50.9928V17.622C50.9928 18.7378 50.7459 19.7469 50.2438 20.6411C49.7417 21.5435 49.0585 22.2408 48.1942 22.7331C47.3299 23.2335 46.3257 23.4796 45.1815 23.4796C44.0374 23.4796 43.0661 23.2335 42.1854 22.7331C41.3046 22.2326 40.6214 21.5353 40.1193 20.6411C39.6172 19.7469 39.3703 18.7378 39.3703 17.622V8.38442H34.3986V17.8764C34.3986 19.8207 34.8595 21.5517 35.7896 23.0859C36.7116 24.6118 37.9874 25.8178 39.609 26.6874C41.2305 27.5652 43.0826 28 45.1815 28C47.2805 28 49.1326 27.5652 50.7541 26.6874C52.3757 25.8178 53.6433 24.6118 54.5735 23.0859C55.4954 21.5599 55.9645 19.8207 55.9645 17.8764V3.69998C55.9645 1.89511 54.4994 0.434814 52.6885 0.434814Z" fill="#27325A"/>
<path d="M71.5135 8.71259H66.55V27.557H71.5135V8.71259Z" fill="#27325A"/>
<path d="M100.776 4.34809C99.969 3.07648 98.8578 2.10021 97.4338 1.43569C96.0098 0.771175 94.3718 0.434814 92.5197 0.434814H82.3623V19.6156H87.3258V4.80751H92.5856C93.4828 4.80751 94.2648 4.97979 94.9233 5.33256C95.5818 5.68533 96.0921 6.16936 96.4543 6.78465C96.8165 7.39995 97.0058 8.1383 97.0058 8.98331C97.0058 9.82831 96.8247 10.5338 96.4543 11.1655C96.0921 11.7973 95.5735 12.2895 94.9233 12.6423C94.2648 12.995 93.4828 13.1673 92.5856 13.1673H89.8446V17.5318H92.5115C94.3635 17.5318 95.9933 17.1954 97.4091 16.5145C98.8249 15.8336 99.9361 14.8573 100.751 13.5857C101.566 12.3141 101.977 10.78 101.977 8.98331C101.977 7.18665 101.574 5.6197 100.776 4.33988V4.34809Z" fill="#27325A"/>
<path d="M116.629 23.1925V16.1289H129.009V11.7562H116.629V4.80751H121.642V0.434814H111.666V27.557H129.742V23.1925H116.629Z" fill="#27325A"/>
<path d="M149.39 5.93965L154.37 20.8872L159.259 19.6566L153.448 2.86318C152.946 1.41108 151.571 0.434814 150.032 0.434814H148.756C147.217 0.434814 145.85 1.41108 145.348 2.85497L136.796 27.557H142.163L149.39 5.93965Z" fill="#27325A"/>
</g>
<defs>
<clipPath id="clip0_373_929">
<rect width="162" height="28" fill="white"/>
</clipPath>
</defs>
</svg>
