<svg width="114" height="19" viewBox="0 0 114 19" fill="none" xmlns="http://www.w3.org/2000/svg">
<path d="M13.1719 4.29373C13.7685 4.81468 14.2145 5.43433 14.4983 6.15269L17.9332 6.16915C17.9332 5.01209 16.9717 3.43827 16.2303 2.61572L13.1719 4.28824V4.29373Z" fill="white"/>
<path d="M27.7108 0.290649H24.2122V4.58437H27.7108V0.290649Z" fill="white"/>
<path d="M50.3301 4.80915V3.46565C50.3301 1.71635 49.0731 0.296082 47.5265 0.296082H46.8372V4.80915H50.3301Z" fill="white"/>
<path d="M61.4572 14.1259H57.9644V18.4196H61.4572V14.1259Z" fill="white"/>
<path d="M86.7932 0.290649H88.5425C90.0659 0.290649 91.2996 1.45867 91.2996 2.90088V3.21345H86.7932V0.290649Z" fill="white"/>
<path d="M112.563 14.4824L109.105 15.3105L110.096 18.151L110.194 18.4197H114L112.563 14.4824Z" fill="white"/>
<path d="M14.4983 12.5576C14.1392 13.4679 13.531 14.2192 12.6737 14.8114C11.8165 15.4036 10.7796 15.6998 9.56323 15.6998C8.34683 15.6998 7.3042 15.4311 6.389 14.8991C5.47381 14.3617 4.76134 13.6215 4.25741 12.6728C3.75347 11.7241 3.4986 10.6164 3.4986 9.34967C3.4986 8.08294 3.75347 6.98072 4.25741 6.03753C4.76134 5.09433 5.47381 4.35952 6.389 3.82212C7.3042 3.28472 8.36421 3.02151 9.56323 3.02151C10.5769 3.02151 11.4631 3.22988 12.2277 3.64116L15.4135 1.89735C14.788 1.40382 14.0697 0.987062 13.253 0.658041C12.164 0.219347 10.936 0 9.56323 0C8.19044 0 6.9219 0.230314 5.75763 0.690943C4.59336 1.15157 3.5797 1.80413 2.71084 2.63765C1.84777 3.47117 1.17585 4.46371 0.706671 5.60432C0.237488 6.7504 0 7.9952 0 9.3387C0 10.6822 0.237488 11.927 0.718256 13.0621C1.19902 14.1972 1.87094 15.1898 2.73401 16.0288C3.59707 16.8733 4.61074 17.5313 5.76922 17.9974C6.9277 18.469 8.19044 18.7048 9.56323 18.7048C10.936 18.7048 12.164 18.4855 13.253 18.0468C14.342 17.6081 15.2629 17.0268 16.016 16.3085C16.769 15.5846 17.5336 14.3124 17.9332 12.5466H14.4983V12.5576Z" fill="white"/>
<path d="M37.0771 0.290649H35.8838V11.779C35.8838 12.5247 35.7101 13.1992 35.3567 13.7969C35.0034 14.4001 34.5226 14.8663 33.9144 15.1953C33.3062 15.5298 32.5996 15.6943 31.7944 15.6943C30.9893 15.6943 30.3058 15.5298 29.686 15.1953C29.0662 14.8608 28.5854 14.3947 28.2321 13.7969C27.8788 13.1992 27.705 12.5247 27.705 11.779V5.60433H24.2064V11.9489C24.2064 13.2486 24.5308 14.4056 25.1853 15.4311C25.8341 16.451 26.7319 17.2571 27.873 17.8384C29.0141 18.4252 30.3174 18.7158 31.7944 18.7158C33.2715 18.7158 34.5748 18.4252 35.7159 17.8384C36.857 17.2571 37.749 16.451 38.4035 15.4311C39.0523 14.4111 39.3824 13.2486 39.3824 11.9489V2.47315C39.3824 1.26674 38.3514 0.290649 37.0771 0.290649Z" fill="white"/>
<path d="M50.3243 5.82367H46.8315V18.4197H50.3243V5.82367Z" fill="white"/>
<path d="M70.9162 2.90636C70.3486 2.05639 69.5666 1.40384 68.5645 0.959658C67.5624 0.51548 66.4097 0.290649 65.1065 0.290649H57.9586V13.1115H61.4515V3.21345H65.1528C65.7842 3.21345 66.3344 3.32861 66.7978 3.5644C67.2612 3.8002 67.6203 4.12374 67.8752 4.53502C68.1301 4.94629 68.2633 5.43982 68.2633 6.00464C68.2633 6.56946 68.1359 7.04106 67.8752 7.4633C67.6203 7.88554 67.2554 8.21456 66.7978 8.45036C66.3344 8.68616 65.7842 8.80132 65.1528 8.80132H63.2239V11.7186H65.1007C66.4039 11.7186 67.5508 11.4938 68.5471 11.0387C69.5434 10.5835 70.3254 9.93095 70.8988 9.08098C71.4723 8.23101 71.7619 7.20557 71.7619 6.00464C71.7619 4.80372 71.4781 3.75633 70.9162 2.90088V2.90636Z" fill="white"/>
<path d="M82.0724 15.5024V10.7809H90.7841V7.85812H82.0724V3.21345H85.5999V0.290649H78.5795V18.4197H91.2996V15.5024H82.0724Z" fill="white"/>
<path d="M105.126 3.9702L108.63 13.9615L112.071 13.1389L107.982 1.91382C107.628 0.943207 106.661 0.290649 105.578 0.290649H104.68C103.597 0.290649 102.635 0.943207 102.282 1.90833L96.2637 18.4197H100.04L105.126 3.9702Z" fill="white"/>
</svg>
